<svg width="32" height="32" viewBox="0 0 32 32" fill="none" xmlns="http://www.w3.org/2000/svg">
<g clip-path="url(#clip0_286_152)">
<path d="M12.5378 28.7972C12.5378 30.2972 14.2889 30.2982 14.7498 29.4999C15.0384 28.9999 15.2498 28.4999 15.2498 26.9999C15.2498 25.4999 14.5258 24.2384 13.8296 22.8794C13.6504 22.5296 13.4578 22.1537 13.253 21.7309C12.9016 21.0056 12.4714 20.3367 11.8469 19.8035C11.7511 19.7217 11.7231 19.5023 11.7404 19.3555C11.8085 18.7759 11.8827 18.1969 11.9568 17.6179C12.0794 16.6609 12.202 15.7039 12.2975 14.7442C12.3645 14.0718 12.3633 13.378 12.2786 12.7082C12.0956 11.2586 11.2821 10.1946 10.0335 9.47786C9.6702 9.26926 9.56307 9.03637 9.60844 8.64632C9.73481 7.56183 10.1635 6.58265 10.7083 5.66605C11.2087 4.82425 11.7757 4.02144 12.3417 3.2201C12.4142 3.11747 12.4866 3.01486 12.5589 2.9122C12.6515 2.78077 12.8805 2.68113 13.049 2.67687C15.103 2.62543 17.1573 2.59121 19.2117 2.56589C19.3528 2.56407 19.5394 2.62989 19.6303 2.73115C20.9118 4.1585 22.0569 5.678 22.7442 7.49459C22.7912 7.61894 22.8303 7.74673 22.8661 7.87492C23.1241 8.79206 23.1199 8.79508 22.3848 9.31247L22.3515 9.33589C20.9673 10.3108 20.4612 11.705 20.5228 13.3373C20.5933 15.2138 21.0153 17.0328 21.4965 18.8385C21.5943 19.2054 21.6577 19.4768 21.3049 19.8152C20.5985 20.4924 20.3047 21.4218 20.1641 22.3672C20.0179 23.352 19.8995 24.3409 19.7811 25.3299C19.7154 25.8788 19.7122 26.3421 19.5792 26.9759C19.0702 29.4029 17.7498 31.9999 15.7498 31.9999H12.5378C11.2498 31.9999 10.2498 30.7972 10.2498 28.7972H12.5378Z" fill="#155DFC"/>
<path d="M11.5607 1.64008C10.8347 2.775 10.091 3.85078 9.44034 4.98022C8.85324 5.9991 8.46218 7.10566 8.27283 8.28027C8.02494 9.8182 8.4235 11.1797 9.51913 12.2444C10.4211 13.1209 10.6538 14.1118 10.538 15.2919C10.2857 17.8647 9.77936 20.385 9.05131 22.863C9.04422 22.8869 9.02214 22.9064 8.97435 22.9744C8.53792 22.8381 8.07901 22.7111 7.63165 22.5524C1.38253 20.3344 -3.18062 16.2382 -6.04606 10.2575C-6.29374 9.74063 -6.51975 9.21246 -6.73158 8.68004C-6.77189 8.57878 -6.74374 8.38234 -6.66961 8.31328C-4.28698 6.09307 -1.91002 3.86617 0.50117 1.67735C2.16142 0.170403 4.14529 -0.303895 6.31143 0.184986C7.98444 0.562481 9.62828 1.06959 11.2841 1.52262C11.3961 1.5532 11.5 1.61376 11.5607 1.64008Z" fill="#155DFC"/>
<path d="M24.2397 22.3314C23.8972 21.1864 23.5199 20.1003 23.2528 18.9878C22.9016 17.5244 22.6171 16.0438 22.3435 14.5632C22.1888 13.7264 22.35 12.9544 22.9725 12.3027C24.5667 10.6339 24.5983 8.69929 23.8328 6.67592C23.1868 4.96849 22.1482 3.49759 20.9256 2.15226C20.7825 1.9947 20.6423 1.8341 20.4795 1.65123C20.5718 1.6006 20.6427 1.54693 20.7227 1.52C22.532 0.910212 24.3624 0.387106 26.2602 0.122211C28.1953 -0.147949 29.8448 0.454544 31.2612 1.74398C32.5042 2.87545 33.7011 4.05816 34.9529 5.17971C35.9556 6.07788 37.0032 6.92664 38.0476 7.77681C38.2361 7.93012 38.2841 8.05386 38.2282 8.27602C37.2646 12.1148 35.328 15.3721 32.3643 17.9969C30.0283 20.0657 27.3376 21.4946 24.2397 22.3316V22.3314Z" fill="#155DFC"/>
</g>
<defs>
<clipPath id="clip0_286_152">
<rect width="32" height="32" rx="6" fill="white"/>
</clipPath>
</defs>
</svg>
